<svg width="32" height="32" viewBox="0 0 32 32" fill="none" xmlns="http://www.w3.org/2000/svg">
<path d="M16.0374 16.0001C16.0374 13.0546 18.4252 10.6667 21.3707 10.6667C24.3162 10.6667 26.704 13.0546 26.704 16.0001C26.704 18.9456 24.3161 21.3334 21.3707 21.3334C18.4251 21.3334 16.0374 18.9456 16.0374 16.0001Z" fill="#00BCFF"/>
<path d="M5.37085 26.6666C5.37085 23.7211 7.75866 21.3333 10.7042 21.3333L13.5464 19.8328L16.0375 21.3333V26.6666C16.0375 29.6122 13.6497 31.9999 10.7042 31.9999C7.75866 31.9999 5.37085 29.6121 5.37085 26.6666Z" fill="#00CF7F"/>
<path d="M16.0374 0L13.1353 5.04187L16.0374 10.6666H21.2959C24.2414 10.6666 26.6292 8.27881 26.6292 5.33331C26.6292 2.38781 24.2414 0 21.2959 0H16.0374Z" fill="#FF7361"/>
<path d="M5.2959 5.33331C5.2959 8.27881 7.68371 10.6666 10.6292 10.6666L13.4584 11.7594L16.0373 10.6666V0H10.6291C7.68371 0 5.2959 2.38781 5.2959 5.33331Z" fill="#FF4D12"/>
<path d="M5.37085 16C5.37085 18.9456 7.75866 21.3333 10.7042 21.3333H16.0375V10.6666H10.7042C7.75866 10.6666 5.37085 13.0545 5.37085 16Z" fill="#B659FF"/>
</svg>
