<svg width="35" height="51" viewBox="0 0 35 51" fill="none" xmlns="http://www.w3.org/2000/svg">
<path d="M9.17477 50.9999C11.4291 50.9999 13.5911 50.1044 15.1852 48.5104C16.7792 46.9163 17.6747 44.7543 17.6747 42.5V34H9.17477C6.92044 34 4.75844 34.8955 3.16439 36.4896C1.57033 38.0836 0.674805 40.2456 0.674805 42.5C0.674805 44.7543 1.57033 46.9163 3.16439 48.5104C4.75844 50.1044 6.92044 50.9999 9.17477 50.9999Z" fill="#248ec7"/>
<path d="M0.674805 25.5C0.674805 23.2456 1.57033 21.0836 3.16439 19.4896C4.75844 17.8955 6.92044 17 9.17477 17H17.6747V33.9999H9.17477C6.92044 33.9999 4.75844 33.1044 3.16439 31.5104C1.57033 29.9163 0.674805 27.7543 0.674805 25.5Z" fill="#A259FF"/>
<path d="M0.674805 8.49997C0.674804 6.24679 1.56942 4.08579 3.16204 2.49193C4.75466 0.898067 6.91495 0.0017603 9.16813 0L17.6681 0V16.9999H9.17477C6.92044 16.9999 4.75844 16.1044 3.16439 14.5104C1.57033 12.9163 0.674805 10.7543 0.674805 8.49997Z" fill="#F24E1E"/>
<path d="M17.6748 0H26.1748C28.4291 0 30.5911 0.89553 32.1852 2.48958C33.7792 4.08364 34.6747 6.24564 34.6747 8.49997C34.6747 10.7543 33.7792 12.9163 32.1852 14.5104C30.5911 16.1044 28.4291 16.9999 26.1748 16.9999H17.6748V0Z" fill="#FF7262"/>
<path d="M34.6747 25.5C34.6747 27.7543 33.7792 29.9163 32.1852 31.5104C30.5911 33.1044 28.4291 33.9999 26.1748 33.9999C23.9204 33.9999 21.7584 33.1044 20.1644 31.5104C18.5703 29.9163 17.6748 27.7543 17.6748 25.5C17.6748 23.2456 18.5703 21.0836 20.1644 19.4896C21.7584 17.8955 23.9204 17 26.1748 17C28.4291 17 30.5911 17.8955 32.1852 19.4896C33.7792 21.0836 34.6747 23.2456 34.6747 25.5Z" fill="#1ABCFE"/>
</svg>
