<svg width="32" height="32" viewBox="0 0 32 32" fill="none" xmlns="http://www.w3.org/2000/svg">
<path d="M6.77502 0H8.21252V1.425H9.53752V0H10.975V4.3125H9.53752V2.875H8.22502V4.3125H6.77502V0ZM12.875 1.4375H11.6063V0H15.5875V1.4375H14.3125V4.3125H12.875V1.4375ZM16.2188 0H17.725L18.65 1.51875L19.575 0H21.0813V4.3125H19.6438V2.175L18.6375 3.725L17.6313 2.175V4.3125H16.2188V0ZM21.7938 0H23.2313V2.8875H25.2688V4.3125H21.7938V0Z" fill="black"/>
<path d="M6.72498 29.4375L4.66248 6.28748H27.3375L25.275 29.425L15.9812 32" fill="#FF4C1E"/>
<path d="M16 30.0312V8.1875H25.2687L23.5 27.9375L16 30.0312Z" fill="#FF651E"/>
<path d="M8.875 11.0188H16L17.0594 12.4375L16 13.8563H11.9875L12.25 16.7625H16L17.0594 18.2344L16 19.5938H9.65L8.875 11.0188ZM9.775 21.0188H12.625L12.825 23.2875L16 24.1375L17.1954 25.5538L16 27.1L10.175 25.475L9.775 21.0188Z" fill="#EBEBEB"/>
<path d="M23.0999 11.0188H15.9874V13.8563H22.8374L23.0999 11.0188ZM22.5812 16.7625H15.9874V19.6H19.4874L19.1562 23.2875L15.9874 24.1375V27.0875L21.7999 25.475L22.5812 16.7625Z" fill="white"/>
</svg>
