<svg width="32" height="32" viewBox="0 0 32 32" fill="none" xmlns="http://www.w3.org/2000/svg">
<g clip-path="url(#clip0_2222_532)">
<path d="M5.66669 0.400024H26.3334C29.4667 0.400024 32 2.93334 32 6.06671V25.9334C32 29.0667 29.4667 31.6001 26.3333 31.6001H5.66669C2.53331 31.6 0 29.0667 0 25.9333V6.06671C0 2.93334 2.53331 0.400024 5.66669 0.400024Z" fill="#390000"/>
<path d="M15.5067 19.12H10.5467L9.53335 22.2533C9.50667 22.3733 9.40004 22.4533 9.28004 22.44H6.77336C6.62667 22.44 6.58667 22.36 6.62667 22.2L10.92 9.83997C10.96 9.70666 11 9.55997 11.0533 9.39997C11.1066 9.11997 11.1333 8.82666 11.1333 8.53328C11.12 8.4666 11.1733 8.39997 11.24 8.3866H11.28H14.6933C14.8 8.3866 14.8533 8.4266 14.8666 8.49328L19.7333 22.2266C19.7733 22.3733 19.7333 22.4399 19.6 22.4399H16.8133C16.72 22.4532 16.6266 22.3866 16.6 22.2932L15.5067 19.12ZM11.32 16.4133H14.7067L13 10.8533L11.32 16.4133Z" fill="#FF9A00"/>
<path d="M22.64 10.6667C22.2 10.68 21.7734 10.5067 21.4534 10.2C21.1467 9.8667 20.9867 9.4267 21 8.97332C20.9867 8.52001 21.16 8.09332 21.48 7.78663C21.8 7.47995 22.2267 7.31995 22.6667 7.31995C23.1867 7.31995 23.5867 7.47995 23.88 7.78663C24.1734 8.10663 24.3334 8.53332 24.32 8.97332C24.3334 9.42663 24.1734 9.86663 23.8534 10.2C23.5467 10.52 23.0934 10.6933 22.64 10.6667Z" fill="#FF9A00"/>
<path d="M21.1467 22.24V11.9733C21.1467 11.84 21.2 11.7866 21.32 11.7866H23.96C24.08 11.7866 24.1334 11.8533 24.1334 11.9733V22.24C24.1334 22.3867 24.08 22.4533 23.96 22.4533H21.3467C21.2134 22.4533 21.1467 22.3733 21.1467 22.24Z" fill="#FF9A00"/>
</g>
<defs>
<clipPath id="clip0_2222_532">
<rect width="32" height="32" fill="white"/>
</clipPath>
</defs>
</svg>
