<svg width="159" height="46" viewBox="0 0 159 46" fill="none" xmlns="http://www.w3.org/2000/svg">
<path d="M64.4026 31.9215C63.1673 31.9215 61.9861 31.7915 60.8592 31.5315C59.7322 31.2498 58.7353 30.8273 57.8684 30.2639C57.0015 29.6789 56.3188 28.9639 55.8203 28.1189C55.3219 27.2522 55.0726 26.2339 55.0726 25.0639C55.0726 24.9339 55.0726 24.8039 55.0726 24.6739C55.0943 24.5439 55.1051 24.4464 55.1051 24.3814H59.3638C59.3638 24.4247 59.3529 24.5114 59.3313 24.6414C59.3313 24.7497 59.3313 24.8472 59.3313 24.9339C59.3313 25.6489 59.5371 26.2664 59.9489 26.7864C60.3607 27.2847 60.9567 27.6748 61.7369 27.9564C62.5171 28.2164 63.4382 28.3464 64.5001 28.3464C65.2153 28.3464 65.8438 28.3031 66.3856 28.2164C66.9491 28.1298 67.4259 28.0106 67.816 27.8589C68.2278 27.6856 68.5637 27.4906 68.8237 27.2739C69.0838 27.0356 69.268 26.7756 69.3764 26.4939C69.5064 26.2122 69.5714 25.9089 69.5714 25.5839C69.5714 24.9556 69.3764 24.4355 68.9863 24.0239C68.5962 23.6122 68.0652 23.2655 67.3934 22.9839C66.7432 22.7022 65.9955 22.453 65.1503 22.2364C64.3267 21.998 63.4707 21.7597 62.5821 21.5213C61.7152 21.283 60.8592 21.0013 60.0139 20.6763C59.1904 20.3297 58.4427 19.918 57.7708 19.4413C57.1207 18.9646 56.6005 18.3688 56.2104 17.6538C55.8203 16.9171 55.6253 16.0396 55.6253 15.0213C55.6253 13.9813 55.842 13.0712 56.2754 12.2912C56.7306 11.5112 57.3591 10.872 58.1609 10.3737C58.9845 9.8537 59.9381 9.47453 61.0217 9.23619C62.1053 8.97619 63.2865 8.84619 64.5651 8.84619C65.7571 8.84619 66.8732 8.97619 67.9135 9.23619C68.9755 9.47453 69.9074 9.86454 70.7092 10.4062C71.5111 10.9262 72.1396 11.5979 72.5947 12.4212C73.0499 13.2229 73.2774 14.1871 73.2774 15.3138V15.7038H69.0838V15.3788C69.0838 14.7504 68.8888 14.2196 68.4987 13.7863C68.1302 13.3529 67.5993 13.0171 66.9057 12.7787C66.2339 12.5404 65.4429 12.4212 64.5326 12.4212C63.5574 12.4212 62.723 12.5187 62.0295 12.7137C61.3359 12.8871 60.805 13.1579 60.4365 13.5262C60.0681 13.8729 59.8839 14.3063 59.8839 14.8263C59.8839 15.3679 60.0789 15.8229 60.4691 16.1913C60.8592 16.5596 61.3793 16.8738 62.0295 17.1338C62.7013 17.3938 63.449 17.6321 64.2726 17.8488C65.1178 18.0655 65.9738 18.3038 66.8407 18.5638C67.7293 18.8021 68.5854 19.0838 69.4089 19.4088C70.2541 19.7338 71.0018 20.1455 71.652 20.6438C72.3238 21.1205 72.8548 21.7163 73.2449 22.4314C73.635 23.1464 73.8301 24.0022 73.8301 24.9989C73.8301 26.6672 73.4183 28.0106 72.5947 29.0289C71.7929 30.0473 70.6767 30.784 69.2464 31.239C67.8377 31.694 66.2231 31.9215 64.4026 31.9215Z" fill="white"/>
<path d="M78.7165 37.1539V14.4361H81.9999L82.325 16.7112H82.5525C83.116 15.8228 83.8529 15.162 84.7631 14.7287C85.6733 14.2736 86.6811 14.0461 87.7864 14.0461C89.1951 14.0461 90.3979 14.3603 91.3948 14.9887C92.4134 15.617 93.1937 16.592 93.7355 17.9137C94.2989 19.2354 94.5807 20.9362 94.5807 23.0163C94.5807 25.0529 94.2989 26.7321 93.7355 28.0538C93.172 29.3755 92.3918 30.3505 91.3948 30.9788C90.4196 31.6072 89.2926 31.9214 88.014 31.9214C87.2338 31.9214 86.5186 31.8347 85.8684 31.6614C85.2182 31.488 84.6439 31.228 84.1454 30.8813C83.647 30.513 83.2244 30.0688 82.8776 29.5488H82.6826V37.1539H78.7165ZM86.5511 28.5088C87.5263 28.5088 88.2957 28.3246 88.8592 27.9563C89.4443 27.5663 89.8561 26.9813 90.0945 26.2013C90.3546 25.4213 90.4846 24.4354 90.4846 23.2438V22.7887C90.4846 21.5754 90.3546 20.5787 90.0945 19.7987C89.8561 18.997 89.4443 18.412 88.8592 18.0437C88.2957 17.6537 87.5263 17.4587 86.5511 17.4587C85.6625 17.4587 84.9256 17.6645 84.3405 18.0762C83.777 18.4879 83.3544 19.0945 83.0727 19.8962C82.8126 20.6762 82.6826 21.6404 82.6826 22.7887V23.1788C82.6826 24.0238 82.7584 24.7821 82.9101 25.4538C83.0618 26.1038 83.2894 26.6563 83.5928 27.1113C83.9179 27.5663 84.3188 27.913 84.7956 28.1513C85.2941 28.3896 85.8792 28.5088 86.5511 28.5088Z" fill="white"/>
<path d="M103.72 31.9214C103.244 31.9214 102.691 31.8564 102.062 31.7264C101.456 31.618 100.86 31.4014 100.274 31.0763C99.711 30.7513 99.245 30.2747 98.8766 29.6463C98.5081 28.9963 98.3239 28.1513 98.3239 27.1113C98.3239 25.9413 98.584 24.9771 99.1041 24.2188C99.6243 23.4388 100.35 22.8321 101.282 22.3987C102.236 21.9437 103.363 21.6296 104.663 21.4562C105.985 21.2612 107.426 21.1637 108.987 21.1637V19.7662C108.987 19.2679 108.911 18.8237 108.759 18.4337C108.607 18.0437 108.326 17.7404 107.914 17.5237C107.524 17.2853 106.928 17.1662 106.126 17.1662C105.324 17.1662 104.696 17.2637 104.24 17.4587C103.785 17.6537 103.471 17.892 103.298 18.1737C103.124 18.4554 103.038 18.7479 103.038 19.0512V19.5062H99.2017C99.18 19.3979 99.1692 19.2895 99.1692 19.1812C99.1692 19.0729 99.1692 18.9429 99.1692 18.7912C99.1692 17.8162 99.4617 16.9712 100.047 16.2562C100.632 15.5412 101.445 14.9995 102.485 14.6311C103.525 14.2411 104.728 14.0461 106.093 14.0461C107.654 14.0461 108.933 14.2628 109.929 14.6962C110.948 15.1295 111.707 15.747 112.205 16.5487C112.704 17.3503 112.953 18.3254 112.953 19.4737V27.5338C112.953 27.9455 113.072 28.238 113.31 28.4113C113.549 28.5847 113.809 28.6713 114.091 28.6713H115.131V31.4013C114.914 31.488 114.6 31.5855 114.188 31.6939C113.776 31.8239 113.267 31.8889 112.66 31.8889C112.097 31.8889 111.587 31.7914 111.132 31.5964C110.699 31.423 110.33 31.163 110.027 30.8163C109.724 30.4697 109.507 30.058 109.377 29.5813H109.182C108.813 30.0363 108.369 30.448 107.849 30.8163C107.35 31.163 106.754 31.4339 106.061 31.6289C105.389 31.8239 104.609 31.9214 103.72 31.9214ZM104.923 28.6713C105.573 28.6713 106.148 28.5738 106.646 28.3788C107.166 28.1838 107.589 27.913 107.914 27.5663C108.261 27.2196 108.521 26.7971 108.694 26.2988C108.889 25.8005 108.987 25.2588 108.987 24.6738V23.8938C107.795 23.8938 106.689 23.9696 105.671 24.1213C104.674 24.2729 103.872 24.5546 103.265 24.9663C102.68 25.3779 102.387 25.963 102.387 26.7213C102.387 27.1113 102.474 27.458 102.648 27.7613C102.843 28.043 103.124 28.2705 103.493 28.4438C103.883 28.5955 104.36 28.6713 104.923 28.6713Z" fill="#E8E8E8"/>
<path d="M118.361 31.5314V14.4361H121.677L122.002 17.1337H122.23C122.446 16.592 122.706 16.0937 123.01 15.6387C123.335 15.162 123.747 14.7828 124.245 14.5011C124.744 14.1978 125.35 14.0461 126.066 14.0461C126.412 14.0461 126.727 14.0786 127.008 14.1436C127.312 14.2086 127.539 14.2736 127.691 14.3386V18.0762H126.488C125.816 18.0762 125.22 18.1737 124.7 18.3687C124.18 18.542 123.736 18.8237 123.367 19.2137C123.021 19.6037 122.761 20.0912 122.587 20.6762C122.414 21.2612 122.327 21.9437 122.327 22.7237V31.5314H118.361Z" fill="#D1D1D1"/>
<path d="M136.359 31.9215C135.297 31.9215 134.463 31.7156 133.856 31.304C133.249 30.8706 132.816 30.3289 132.556 29.6789C132.317 29.0073 132.198 28.3248 132.198 27.6314V17.6863H130.15V14.4362H132.295L133.011 9.65869H136.164V14.4362H139.122V17.6863H136.164V27.2414C136.164 27.6964 136.283 28.0539 136.522 28.3139C136.76 28.5523 137.118 28.6714 137.594 28.6714H139.122V31.4015C138.906 31.4881 138.635 31.564 138.31 31.629C138.006 31.7156 137.681 31.7806 137.334 31.824C136.988 31.889 136.662 31.9215 136.359 31.9215Z" fill="#8B8B8B"/>
<path d="M150.548 31.9214C148.684 31.9214 147.124 31.6072 145.867 30.9788C144.61 30.3288 143.667 29.343 143.038 28.0213C142.41 26.6996 142.096 25.0204 142.096 22.9838C142.096 20.9254 142.41 19.2462 143.038 17.9462C143.667 16.6245 144.61 15.6495 145.867 15.0212C147.124 14.3711 148.684 14.0461 150.548 14.0461C152.433 14.0461 153.994 14.3711 155.229 15.0212C156.486 15.6495 157.429 16.6245 158.057 17.9462C158.686 19.2462 159 20.9254 159 22.9838C159 25.0204 158.686 26.6996 158.057 28.0213C157.429 29.343 156.486 30.3288 155.229 30.9788C153.994 31.6072 152.433 31.9214 150.548 31.9214ZM150.548 28.6713C151.588 28.6713 152.422 28.4763 153.051 28.0863C153.701 27.6746 154.167 27.068 154.449 26.2663C154.752 25.4429 154.904 24.4246 154.904 23.2113V22.7562C154.904 21.5429 154.752 20.5354 154.449 19.7337C154.167 18.9104 153.701 18.3037 153.051 17.9137C152.422 17.502 151.588 17.2962 150.548 17.2962C149.508 17.2962 148.662 17.502 148.012 17.9137C147.384 18.3037 146.918 18.9104 146.614 19.7337C146.333 20.5354 146.192 21.5429 146.192 22.7562V23.2113C146.192 24.4246 146.333 25.4429 146.614 26.2663C146.918 27.068 147.384 27.6746 148.012 28.0863C148.662 28.4763 149.508 28.6713 150.548 28.6713Z" fill="#454545"/>
<ellipse cx="23.095" cy="23" rx="23.095" ry="23" fill="#248ec7"/>
<path fill-rule="evenodd" clip-rule="evenodd" d="M10.6594 22.9537C10.6594 19.0349 12.5756 15.5665 15.5411 13.2693C13.7618 15.4314 13.7161 18.0439 14.218 19.7106C15.0392 22.3682 16.7273 25.2059 24.4833 25.3411C26.5364 25.3411 29.73 25.4762 30.4144 27.7734C31.0075 29.7103 29.8669 31.8274 27.4945 32.7283C20.3772 35.476 10.6137 31.7373 10.6594 22.9537Z" fill="#171717"/>
<path fill-rule="evenodd" clip-rule="evenodd" d="M35.9803 27.323C35.9346 27.0077 35.8434 26.6473 35.7522 26.332C34.8397 23.3591 32.5129 20.6115 25.0306 20.3412C23.0688 20.2511 19.6014 20.2961 18.9171 18.0439C18.3696 16.2422 20.1945 14.8008 21.837 14.3954C28.3611 12.8639 38.6721 19.125 35.9803 27.278V27.323Z" fill="#171717"/>
</svg>
