<svg width="32" height="32" viewBox="0 0 32 32" fill="none" xmlns="http://www.w3.org/2000/svg">
<g clip-path="url(#clip0_2222_539)">
<path d="M5.66669 0.400024H26.3334C29.4667 0.400024 32 2.93334 32 6.06671V25.9334C32 29.0667 29.4667 31.6001 26.3333 31.6001H5.66669C2.53331 31.6 0 29.0667 0 25.9333V6.06671C0 2.93334 2.53331 0.400024 5.66669 0.400024Z" fill="#001834"/>
<path d="M7.19995 22.2801V8.56006C7.19995 8.46675 7.23995 8.41337 7.33326 8.41337C7.55995 8.41337 7.77326 8.41337 8.07995 8.40006C8.39995 8.38675 8.73326 8.38675 9.09326 8.37337C9.45326 8.36 9.83995 8.36006 10.2533 8.34669C10.6666 8.33337 11.0666 8.33337 11.4666 8.33337C12.5599 8.33337 13.4666 8.46669 14.2133 8.74669C14.88 8.97337 15.4933 9.34669 16 9.84C16.4266 10.2667 16.76 10.7867 16.9733 11.36C17.1733 11.92 17.28 12.4933 17.28 13.0933C17.28 14.24 17.0133 15.1866 16.48 15.9333C15.9466 16.68 15.2 17.24 14.3333 17.56C13.4266 17.8933 12.4266 18.0133 11.3333 18.0133C11.0133 18.0133 10.8 18.0133 10.6666 18C10.5333 17.9867 10.3466 17.9867 10.0933 17.9867V22.2667C10.1066 22.36 10.04 22.44 9.94658 22.4534C9.93326 22.4534 9.91989 22.4534 9.89326 22.4534H7.35995C7.25326 22.4534 7.19995 22.4001 7.19995 22.2801ZM10.1066 10.9867V15.4667C10.2933 15.4801 10.4666 15.4934 10.6266 15.4934H11.3333C12.254 15.4934 13.3173 15.2771 13.96 14.5468C14.513 13.9183 14.5146 12.6719 14.0666 11.9868C13.5349 11.1735 12.4715 10.9379 11.56 10.9601C11.2133 10.9601 10.9066 10.9601 10.6533 10.9734C10.3866 10.9601 10.2 10.9734 10.1066 10.9867Z" fill="#00A9FF"/>
<path d="M25.5998 14.6533C25.1998 14.44 24.7732 14.2933 24.3198 14.2C23.8265 14.0933 23.3332 14.0267 22.8265 14.0267C22.5598 14.0134 22.2798 14.0534 22.0265 14.12C21.8532 14.16 21.7065 14.2533 21.6132 14.3867C21.5465 14.4934 21.5065 14.6267 21.5065 14.7467C21.5065 14.8667 21.5598 14.9867 21.6398 15.0934C21.7598 15.2401 21.9198 15.3601 22.0932 15.4534C22.3998 15.6134 22.7198 15.7601 23.0398 15.8934C23.7598 16.1334 24.4532 16.4667 25.0932 16.8667C25.5332 17.1467 25.8932 17.52 26.1465 17.9734C26.3598 18.4001 26.4665 18.8667 26.4532 19.3467C26.4665 19.9734 26.2798 20.6 25.9332 21.12C25.5598 21.6533 25.0398 22.0667 24.4398 22.3067C23.7865 22.5867 22.9865 22.7334 22.0265 22.7334C21.4132 22.7334 20.8132 22.6801 20.2132 22.5601C19.7465 22.4801 19.2799 22.3334 18.8532 22.1334C18.7599 22.0801 18.6932 21.9867 18.7065 21.8801V19.5601C18.7065 19.5201 18.7198 19.4668 18.7598 19.4401C18.7998 19.4134 18.8398 19.4268 18.8798 19.4534C19.3998 19.7601 19.9465 19.9734 20.5332 20.1067C21.0398 20.24 21.5732 20.3067 22.1065 20.3067C22.6132 20.3067 22.9732 20.24 23.2132 20.12C23.4265 20.0267 23.5732 19.8 23.5732 19.56C23.5732 19.3733 23.4665 19.2 23.2532 19.0267C23.0398 18.8534 22.5998 18.6534 21.9465 18.4C21.2665 18.16 20.6398 17.84 20.0532 17.44C19.6398 17.1467 19.2932 16.76 19.0398 16.3067C18.8265 15.88 18.7198 15.4134 18.7332 14.9467C18.7332 14.3734 18.8932 13.8267 19.1865 13.3334C19.5198 12.8001 20.0132 12.3734 20.5865 12.1067C21.2132 11.7867 21.9998 11.64 22.9465 11.64C23.4932 11.64 24.0532 11.68 24.5998 11.76C24.9998 11.8133 25.3865 11.92 25.7465 12.0667C25.7998 12.08 25.8532 12.1334 25.8798 12.1867C25.8931 12.24 25.9065 12.2934 25.9065 12.3467V14.52C25.9065 14.5733 25.8798 14.6267 25.8398 14.6533C25.7198 14.68 25.6532 14.68 25.5998 14.6533Z" fill="#00A9FF"/>
</g>
<defs>
<clipPath id="clip0_2222_539">
<rect width="32" height="32" fill="white"/>
</clipPath>
</defs>
</svg>
