<svg width="32" height="32" viewBox="0 0 32 32" fill="none" xmlns="http://www.w3.org/2000/svg">
<path d="M16.0159 18.952C17.6727 18.952 19.0159 17.6089 19.0159 15.952C19.0159 14.2952 17.6727 12.952 16.0159 12.952C14.359 12.952 13.0159 14.2952 13.0159 15.952C13.0159 17.6089 14.359 18.952 16.0159 18.952Z" fill="#30A2FF"/>
<path fill-rule="evenodd" clip-rule="evenodd" d="M10.538 6.46403C9.63098 6.30803 8.77798 6.23203 7.99898 6.23603C5.59398 6.24903 3.83498 7.05103 3.02598 8.45203C2.21698 9.85403 2.40198 11.778 3.59298 13.867C3.97898 14.544 4.47198 15.245 5.05998 15.952C4.47198 16.66 3.97898 17.36 3.59298 18.038C2.40198 20.126 2.21698 22.051 3.02598 23.452C3.83498 24.854 5.59398 25.656 7.99898 25.669C8.77798 25.673 9.63098 25.597 10.538 25.441C10.857 26.304 11.217 27.081 11.611 27.754C12.824 29.83 14.398 30.952 16.016 30.952C17.635 30.952 19.209 29.83 20.422 27.754C20.816 27.081 21.176 26.304 21.495 25.441C22.402 25.597 23.255 25.673 24.034 25.669C26.439 25.656 28.198 24.854 29.007 23.452C29.816 22.051 29.631 20.126 28.44 18.038C28.054 17.36 27.561 16.66 26.973 15.952C27.561 15.245 28.054 14.544 28.44 13.867C29.631 11.778 29.816 9.85403 29.007 8.45203C28.198 7.05103 26.439 6.24903 24.034 6.23603C23.255 6.23203 22.402 6.30803 21.495 6.46403C21.176 5.60103 20.816 4.82303 20.422 4.15003C19.209 2.07503 17.635 0.952026 16.016 0.952026C14.398 0.952026 12.824 2.07503 11.611 4.15003C11.217 4.82303 10.857 5.60103 10.538 6.46403ZM16.016 23.768C14.811 24.282 13.631 24.694 12.505 25.001C12.756 25.643 13.035 26.228 13.337 26.745C14.111 28.069 14.984 28.952 16.016 28.952C17.048 28.952 17.922 28.069 18.696 26.745C18.998 26.228 19.276 25.643 19.528 25.001C18.402 24.694 17.222 24.282 16.016 23.768ZM25.608 17.436C24.779 18.257 23.833 19.073 22.785 19.86C22.627 21.161 22.394 22.389 22.097 23.517C22.779 23.621 23.425 23.672 24.024 23.669C25.557 23.661 26.759 23.346 27.275 22.452C27.791 21.559 27.462 20.36 26.703 19.028C26.406 18.508 26.039 17.974 25.608 17.436ZM6.42498 17.436C5.99398 17.974 5.62698 18.508 5.32998 19.028C4.57098 20.36 4.24198 21.559 4.75798 22.452C5.27398 23.346 6.47598 23.661 8.00898 23.669C8.60798 23.672 9.25398 23.621 9.93598 23.517C9.63898 22.389 9.40498 21.161 9.24798 19.86C8.19998 19.073 7.25398 18.257 6.42498 17.436ZM11.503 21.405C11.614 21.995 11.743 22.562 11.888 23.103C12.429 22.958 12.985 22.786 13.551 22.588C13.206 22.404 12.861 22.213 12.516 22.015C12.172 21.816 11.834 21.613 11.503 21.405ZM20.53 21.405C20.199 21.613 19.861 21.816 19.516 22.015C19.172 22.213 18.827 22.404 18.482 22.588C19.049 22.786 19.604 22.958 20.145 23.103C20.29 22.562 20.419 21.995 20.53 21.405ZM16.016 10.322C16.843 10.706 17.68 11.139 18.516 11.622C19.353 12.105 20.147 12.613 20.892 13.137C20.974 14.045 21.016 14.987 21.016 15.952C21.016 16.918 20.974 17.86 20.892 18.767C20.147 19.292 19.353 19.8 18.516 20.282C17.68 20.765 16.843 21.199 16.016 21.582C15.19 21.199 14.353 20.765 13.516 20.282C12.68 19.8 11.886 19.292 11.141 18.767C11.059 17.86 11.016 16.918 11.016 15.952C11.016 14.987 11.059 14.045 11.141 13.137C11.886 12.613 12.68 12.105 13.516 11.622C14.353 11.139 15.19 10.706 16.016 10.322ZM22.996 14.77C23.009 15.16 23.016 15.555 23.016 15.952C23.016 16.35 23.009 16.744 22.996 17.134C23.451 16.743 23.878 16.348 24.273 15.952C23.878 15.556 23.451 15.161 22.996 14.77ZM9.03698 14.77C8.58198 15.161 8.15498 15.556 7.75898 15.952C8.15498 16.348 8.58198 16.744 9.03698 17.134C9.02298 16.744 9.01598 16.35 9.01598 15.952C9.01598 15.555 9.02298 15.16 9.03698 14.77ZM9.93598 8.38703C9.25398 8.28403 8.60798 8.23303 8.00898 8.23603C6.47598 8.24403 5.27398 8.55903 4.75798 9.45203C4.24198 10.346 4.57098 11.544 5.32998 12.876C5.62698 13.397 5.99398 13.93 6.42498 14.469C7.25298 13.648 8.19998 12.831 9.24798 12.045C9.40498 10.744 9.63898 9.51603 9.93598 8.38703ZM25.608 14.469C26.039 13.93 26.406 13.397 26.703 12.876C27.462 11.544 27.791 10.346 27.275 9.45203C26.759 8.55903 25.557 8.24403 24.024 8.23603C23.425 8.23303 22.779 8.28403 22.097 8.38703C22.394 9.51603 22.627 10.744 22.785 12.045C23.833 12.831 24.779 13.648 25.608 14.469ZM11.888 8.80203C11.743 9.34303 11.614 9.91003 11.503 10.499C11.834 10.292 12.172 10.089 12.516 9.89003C12.861 9.69103 13.206 9.50003 13.551 9.31703C12.984 9.11803 12.429 8.94603 11.888 8.80203ZM20.145 8.80203C19.604 8.94603 19.048 9.11803 18.482 9.31703C18.827 9.50003 19.172 9.69103 19.516 9.89003C19.861 10.089 20.199 10.292 20.53 10.499C20.419 9.91003 20.29 9.34203 20.145 8.80203ZM19.528 6.90403C19.276 6.26203 18.998 5.67703 18.696 5.16003C17.922 3.83603 17.048 2.95203 16.016 2.95203C14.984 2.95203 14.111 3.83603 13.337 5.16003C13.035 5.67703 12.756 6.26203 12.505 6.90403C13.631 7.21103 14.811 7.62303 16.016 8.13703C17.222 7.62303 18.402 7.21103 19.528 6.90403Z" fill="#30A2FF"/>
</svg>
