<svg width="55" height="50" viewBox="0 0 55 50" fill="none" xmlns="http://www.w3.org/2000/svg">
<path fill-rule="evenodd" clip-rule="evenodd" d="M11.138 17.7461L27.4977 49.7668L0 17.7461H11.138Z" fill="#EA6C00"/>
<path fill-rule="evenodd" clip-rule="evenodd" d="M43.862 17.7461L27.5023 49.7668L55 17.7461H43.862Z" fill="#EA6C00"/>
<path fill-rule="evenodd" clip-rule="evenodd" d="M11.1372 17.7461H43.8566L27.4969 49.7668L11.1372 17.7461Z" fill="#FDAD00"/>
<path fill-rule="evenodd" clip-rule="evenodd" d="M27.4969 0L11.9983 1.6383L11.1372 17.7459L27.4969 0Z" fill="#FDD231"/>
<path fill-rule="evenodd" clip-rule="evenodd" d="M27.4972 0L42.9959 1.6383L43.8569 17.7459L27.4972 0Z" fill="#FDD231"/>
<path fill-rule="evenodd" clip-rule="evenodd" d="M55 17.7463L43.001 1.63867L43.862 17.7463H55Z" fill="#FDAD00"/>
<path fill-rule="evenodd" clip-rule="evenodd" d="M0 17.7463L11.999 1.63867L11.138 17.7463H0Z" fill="#FDAD00"/>
<path fill-rule="evenodd" clip-rule="evenodd" d="M27.4969 0L11.1372 17.7459H43.8566L27.4969 0Z" fill="#FEEEB7"/>
</svg>
