<svg width="32" height="32" viewBox="0 0 32 32" fill="none" xmlns="http://www.w3.org/2000/svg">
<path d="M16 1C7.73116 1 1 7.73116 1 16C1 24.2688 7.73116 31 16 31C24.2688 31 31 24.2688 31 16C31 7.73116 24.2688 1 16 1ZM16 3.14824C19.3317 3.14824 22.3769 4.42211 24.6608 6.51759C24.2764 6.44221 23.892 6.45729 23.5151 6.58543C22.4749 6.94724 21.5854 8.45477 22.2412 9.72111C22.5427 10.3015 23.1457 11.1307 23.8015 11.9975C24.2236 12.5628 25.1432 14.6131 24.3518 17.6281C23.794 19.7613 22.6256 23.4322 22.6256 23.4322L17.9598 9.85678H19.4296C19.7312 9.85678 19.9724 9.61558 19.9724 9.31407C19.9724 9.01256 19.7312 8.77136 19.4296 8.77136H12.299C11.9975 8.77136 11.7563 9.01256 11.7563 9.31407C11.7563 9.61558 11.9975 9.85678 12.299 9.85678H13.5276L15.6608 15.4121L12.8945 23.6658L8.25126 9.85678H9.72111C10.0226 9.85678 10.2638 9.61558 10.2638 9.31407C10.2638 9.01256 10.0226 8.77136 9.72111 8.77136H5.3794C7.701 5.3794 11.598 3.14824 16 3.14824ZM3.14824 16C3.14824 14.1683 3.53266 12.4271 4.22613 10.8518L10.4146 27.5704C6.11809 25.4899 3.14824 21.0879 3.14824 16ZM12.2688 28.294L16.2789 17.191L20.2965 28.1131C18.9548 28.5879 17.5075 28.8518 16.0075 28.8518C14.7035 28.8518 13.4523 28.6558 12.2688 28.294ZM22.7915 26.907C23.598 24.5327 26.3869 16.2487 26.9146 14.6055C27.4121 13.0603 27.8116 12.1558 27.7814 10.8744C28.4673 12.4497 28.8518 14.1834 28.8518 16C28.8518 20.5905 26.4246 24.6307 22.7915 26.907Z" fill="#0071BC"/>
</svg>
