<svg width="32" height="32" viewBox="0 0 32 32" fill="none" xmlns="http://www.w3.org/2000/svg">
<path d="M25.75 1.5H6.25C3.35051 1.5 1 3.85051 1 6.75V25.25C1 28.1495 3.35051 30.5 6.25 30.5H25.75C28.6495 30.5 31 28.1495 31 25.25V6.75C31 3.85051 28.6495 1.5 25.75 1.5Z" fill="#470137"/>
<path d="M16.4212 9.70498L12.7312 16.045L16.7075 22.795C16.7887 22.9325 16.7537 23 16.605 23H14.125C14.0636 23.0065 14.0016 22.9943 13.9472 22.9651C13.8928 22.9359 13.8485 22.891 13.82 22.8362L11.0212 17.7025H11L8.27498 22.8362C8.24992 22.8851 8.21199 22.9262 8.16529 22.955C8.11858 22.9839 8.06488 22.9994 8.00998 23H5.62498C5.48873 23 5.46248 22.9325 5.54373 22.795L9.45373 16.23L5.72873 9.66373C5.64748 9.55498 5.67498 9.49998 5.80998 9.49998H8.29498C8.34826 9.49617 8.40152 9.50768 8.44847 9.53315C8.49543 9.55862 8.53412 9.59699 8.55998 9.64373L11.185 14.7162H11.205L13.8162 9.64373C13.842 9.59719 13.8805 9.55895 13.9272 9.5335C13.9739 9.50804 14.0269 9.49641 14.08 9.49998H16.34C16.49 9.49998 16.5162 9.56873 16.4212 9.70498Z" fill="#FF61F6"/>
<path d="M22.4837 23.25C21.0337 23.25 19.9175 22.8388 19.0513 22.0175C18.185 21.1963 17.75 19.9825 17.75 18.375C17.75 16.9142 18.2158 15.7142 19.1475 14.775C19.6242 14.2816 20.1974 13.8916 20.8314 13.6292C21.4653 13.3669 22.1465 13.2378 22.8325 13.25C23.1395 13.2446 23.4461 13.2773 23.745 13.3475V9.11753C23.7427 9.10169 23.7442 9.08553 23.7492 9.07033C23.7542 9.05514 23.7627 9.04131 23.774 9.02993C23.7852 9.01855 23.799 9.00993 23.8141 9.00474C23.8292 8.99956 23.8454 8.99794 23.8612 9.00003H26.1462C26.21 9.00003 26.2425 9.03878 26.2425 9.11753V20.9613C26.2425 21.4613 26.4588 21.8875 26.4925 22.2525C26.4994 22.2887 26.4934 22.3261 26.4756 22.3583C26.4578 22.3905 26.4293 22.4154 26.395 22.4288C25.2738 22.9763 23.8037 23.25 22.4837 23.25ZM23.75 21.3138V15.2675C23.6688 15.125 23.2387 15 22.7987 15C22.4346 14.9906 22.0729 15.0626 21.7401 15.2107C21.4073 15.3588 21.1117 15.5794 20.875 15.8563C20.2985 16.5315 19.9874 17.3935 20 18.2813C20 19.3763 20.375 20.1263 20.8638 20.6475C21.0948 20.9124 21.3793 21.1254 21.6986 21.2723C22.0179 21.4193 22.3648 21.4969 22.7162 21.5C23.1825 21.5 23.6388 21.43 23.75 21.3138Z" fill="#FF61F6"/>
</svg>
